mtllib sapling_seed2.mtl
v 0.060000 0.000000 0.000000
v 0.043200 0.000000 0.900000
v 0.030000 0.051962 0.000000
v 0.021600 0.037412 0.900000
v -0.030000 0.051962 0.000000
v -0.021600 0.037412 0.900000
v -0.060000 0.000000 0.000000
v -0.043200 0.000000 0.900000
v -0.030000 -0.051962 0.000000
v -0.021600 -0.037412 0.900000
v 0.030000 -0.051962 0.000000
v 0.021600 -0.037412 0.900000
v 0.042673 0.006726 0.900000
v -0.032425 0.405518 1.472953
v 0.016583 0.033525 0.878383
v -0.051210 0.424814 1.457389
v -0.026090 0.026800 0.878383
v -0.081934 0.419971 1.457389
v -0.042673 -0.006726 0.900000
v -0.093874 0.395833 1.472953
v -0.016583 -0.033525 0.921617
v -0.075089 0.376537 1.488517
v 0.026090 -0.026800 0.921617
v -0.044364 0.381380 1.488517
v -0.032593 0.406449 1.472283
v -0.128367 0.893280 1.704061
v -0.050504 0.414662 1.448216
v -0.141262 0.899194 1.686732
v -0.081060 0.408889 1.448886
v -0.163263 0.895037 1.687215
v -0.093705 0.394902 1.473623
v -0.172368 0.884966 1.705025
v -0.075795 0.386689 1.497690
v -0.159472 0.879053 1.722354
v -0.045239 0.392463 1.497020
v -0.137472 0.883210 1.721871
v -0.128329 0.893102 1.704451
v -0.210332 1.311401 1.677022
v -0.139204 0.889872 1.685143
v -0.218163 1.309075 1.663120
v -0.161243 0.885893 1.685235
v -0.234030 1.306210 1.663186
v -0.172406 0.885145 1.704635
v -0.242068 1.305672 1.677154
v -0.161530 0.888375 1.723943
v -0.234237 1.307998 1.691056
v -0.139491 0.892354 1.723851
v -0.218369 1.310862 1.690990
v -0.226200 1.308536 1.677088
v -0.254701 1.425290 1.380514
v -0.188419 1.287279 1.526979
v -0.286781 1.423197 1.589939
v -0.226200 1.308536 1.677088
v -0.245733 1.372905 1.364238
v -0.222825 1.421494 1.569193
v -0.245201 1.247074 1.534703
v -0.226200 1.308536 1.677088
v -0.252348 1.411401 1.375202
v -0.171094 1.408996 1.570865
v -0.302224 1.290368 1.541802
v -0.226200 1.308536 1.677088
v -0.452488 1.441282 1.860315
v -0.314410 1.435498 1.699713
v -0.319020 1.287771 1.801045
v -0.226200 1.308536 1.677088
v -0.422790 1.521201 1.813199
v -0.360873 1.386304 1.662000
v -0.248799 1.400901 1.801065
v -0.226200 1.308536 1.677088
v -0.459741 1.394356 1.878318
v -0.358274 1.262743 1.746884
v -0.280958 1.422985 1.768276
v -0.226200 1.308536 1.677088
v -0.254996 1.540411 1.458445
v -0.264330 1.458209 1.653504
v -0.211106 1.344363 1.525758
v -0.226200 1.308536 1.677088
v -0.260188 1.582669 1.515545
v -0.328149 1.415905 1.627184
v -0.151441 1.420473 1.597758
v -0.226200 1.308536 1.677088
v -0.259772 1.579280 1.509844
v -0.163035 1.447770 1.644896
v -0.316223 1.385898 1.575485
v -0.165650 0.893828 1.688864
v -0.332136 1.189138 1.948721
v -0.169876 0.878130 1.704267
v -0.335179 1.177835 1.959811
v -0.154593 0.873425 1.719946
v -0.324175 1.174448 1.971099
v -0.135084 0.884418 1.720222
v -0.310129 1.182363 1.971298
v -0.130858 0.900117 1.704819
v -0.307086 1.193666 1.960209
v -0.146141 0.904821 1.689141
v -0.318090 1.197053 1.948920
v -0.321133 1.185750 1.960010
v -0.563923 1.103928 2.151733
v -0.425240 1.074402 1.994293
v -0.411258 1.231641 2.079105
v -0.321133 1.185750 1.960010
v -0.563708 1.138341 2.163258
v -0.395834 1.241528 2.085392
v -0.440491 1.092045 1.997226
v -0.321133 1.185750 1.960010
v -0.560883 1.169553 2.171333
v -0.459686 1.245073 2.001191
v -0.374379 1.113470 2.087887
v -0.321133 1.185750 1.960010
v -0.162304 1.409764 2.124300
v -0.292665 1.244222 2.102076
v -0.222537 1.306490 1.949376
v -0.321133 1.185750 1.960010
v -0.154847 1.406674 2.121074
v -0.268118 1.228798 2.100539
v -0.241118 1.319442 1.948331
v -0.321133 1.185750 1.960010
v -0.083807 1.363961 2.079665
v -0.234722 1.314296 1.939486
v -0.217683 1.199773 2.076258
v -0.321133 1.185750 1.960010
v -0.527454 1.288524 2.181976
v -0.342207 1.284534 2.079215
v -0.465115 1.169186 2.018378
v -0.321133 1.185750 1.960010
v -0.533273 1.272765 2.183225
v -0.410350 1.135849 2.078172
v -0.401628 1.305263 2.020419
v -0.321133 1.185750 1.960010
v -0.498441 1.348639 2.170791
v -0.328650 1.239374 2.106571
v -0.455462 1.262438 1.982074
v -0.128417 0.893550 1.704182
v -0.209042 1.275693 1.877149
v -0.141224 0.898976 1.686630
v -0.218264 1.279600 1.864512
v -0.163174 0.894549 1.686991
v -0.234068 1.276412 1.864772
v -0.172317 0.884696 1.704904
v -0.240650 1.269318 1.877669
v -0.159510 0.879270 1.722456
v -0.231429 1.265411 1.890306
v -0.137560 0.883697 1.722095
v -0.215625 1.268599 1.890046
v -0.224846 1.272505 1.877409
v -0.233652 1.515716 1.669633
v -0.225181 1.311694 1.726160
v -0.231556 1.427886 1.862437
v -0.224846 1.272505 1.877409
v -0.250390 1.565248 1.750722
v -0.182885 1.422319 1.891813
v -0.287242 1.356886 1.761655
v -0.224846 1.272505 1.877409
v -0.254126 1.573319 1.772271
v -0.325768 1.384564 1.836546
v -0.147349 1.401098 1.834161
v -0.224846 1.272505 1.877409
v -0.385933 1.208300 2.146349
v -0.287203 1.159423 1.965364
v -0.291359 1.334224 2.004606
v -0.224846 1.272505 1.877409
v -0.375785 1.357528 2.146460
v -0.330562 1.369173 1.939793
v -0.239882 1.243856 2.030266
v -0.224846 1.272505 1.877409
v -0.382545 1.313224 2.152860
v -0.261936 1.374512 1.989797
v -0.313916 1.203073 1.985381
v -0.224846 1.272505 1.877409
v -0.299953 1.573130 1.957307
v -0.315082 1.395343 1.843049
v -0.194695 1.390168 1.975687
v -0.224846 1.272505 1.877409
v -0.301142 1.578450 1.931967
v -0.293052 1.371597 1.977114
v -0.217678 1.418170 1.821351
v -0.224846 1.272505 1.877409
v -0.300429 1.575235 1.948416
v -0.170415 1.408862 1.930853
v -0.339744 1.378332 1.880771
v -0.088033 0.414570 1.460494
v -0.251041 0.554767 1.964152
v -0.089422 0.384589 1.468659
v -0.252041 0.533181 1.970030
v -0.064538 0.370695 1.481118
v -0.234125 0.523177 1.979001
v -0.038266 0.386782 1.485412
v -0.215209 0.534760 1.982092
v -0.036877 0.416763 1.477247
v -0.214209 0.556346 1.976214
v -0.061761 0.430657 1.464788
v -0.232125 0.566350 1.967243
v -0.229457 0.523897 1.980380
v -0.215800 0.672265 2.380694
v -0.212170 0.537107 1.975069
v -0.203353 0.681776 2.376870
v -0.215838 0.557973 1.967812
v -0.205994 0.696800 2.371645
v -0.236793 0.565630 1.965864
v -0.221082 0.702313 2.370243
v -0.254080 0.552420 1.971174
v -0.233529 0.692802 2.374066
v -0.250412 0.531554 1.978432
v -0.230888 0.677778 2.379292
v -0.218441 0.687289 2.375468
v -0.005251 0.767970 2.600058
v -0.076371 0.746835 2.401595
v -0.189958 0.692287 2.529013
v -0.218441 0.687289 2.375468
v -0.016601 0.771143 2.609197
v -0.116100 0.795062 2.423671
v -0.159310 0.646599 2.514249
v -0.218441 0.687289 2.375468
v 0.078576 0.728474 2.487204
v -0.132937 0.736633 2.496573
v -0.066331 0.670893 2.343751
v -0.218441 0.687289 2.375468
v -0.434617 0.917914 2.425268
v -0.275829 0.788604 2.479651
v -0.333994 0.770474 2.311126
v -0.218441 0.687289 2.375468
v -0.431462 0.918576 2.434871
v -0.292623 0.767347 2.487271
v -0.314676 0.792261 2.311187
v -0.218441 0.687289 2.375468
v -0.391287 0.913273 2.521946
v -0.323063 0.801573 2.355330
v -0.252095 0.753792 2.512789
v -0.218441 0.687289 2.375468
v -0.029347 0.794603 2.610260
v -0.083984 0.759671 2.408551
v -0.201623 0.700759 2.530219
v -0.218441 0.687289 2.375468
v -0.137869 0.793575 2.666349
v -0.172529 0.811685 2.458111
v -0.199895 0.647922 2.525530
v -0.218441 0.687289 2.375468
v 0.010591 0.790008 2.573945
v -0.072955 0.662520 2.426775
v -0.180702 0.794233 2.482943
v -0.251291 0.554943 1.964881
v -0.374929 0.643615 2.364008
v -0.251928 0.533086 1.969716
v -0.375387 0.627878 2.367489
v -0.233762 0.522906 1.977956
v -0.362308 0.620549 2.373422
v -0.214959 0.534584 1.981363
v -0.348770 0.628957 2.375874
v -0.214322 0.556442 1.976528
v -0.348311 0.644694 2.372393
v -0.232488 0.566621 1.968287
v -0.361390 0.652023 2.366460
v -0.361849 0.636286 2.369941
v -0.547759 0.440780 2.542031
v -0.483688 0.538581 2.365334
v -0.388738 0.577586 2.512220
v -0.361849 0.636286 2.369941
v -0.535851 0.519171 2.611617
v -0.506597 0.613599 2.424215
v -0.356303 0.565281 2.509008
v -0.361849 0.636286 2.369941
v -0.539517 0.503572 2.600638
v -0.501724 0.576280 2.405248
v -0.364109 0.590121 2.519192
v -0.361849 0.636286 2.369941
v -0.115085 0.735828 2.547701
v -0.282219 0.761068 2.419946
v -0.244068 0.591137 2.462144
v -0.361849 0.636286 2.369941
v -0.071185 0.722245 2.472535
v -0.244275 0.600206 2.466308
v -0.246893 0.741133 2.355649
v -0.361849 0.636286 2.369941
v -0.070138 0.721700 2.469988
v -0.210528 0.643762 2.331754
v -0.279801 0.697141 2.488165
v -0.361849 0.636286 2.369941
v -0.507072 0.567001 2.646545
v -0.449431 0.531454 2.445782
v -0.390446 0.685690 2.515384
v -0.361849 0.636286 2.369941
v -0.517747 0.537713 2.631435
v -0.353788 0.619550 2.525077
v -0.494629 0.574164 2.424001
v -0.361849 0.636286 2.369941
v -0.530365 0.495805 2.602895
v -0.393344 0.636271 2.522978
v -0.465167 0.523916 2.403267
v -0.032322 0.404565 1.471526
v -0.058509 0.709159 1.925877
v -0.051218 0.424713 1.457228
v -0.072114 0.723666 1.915582
v -0.082045 0.420824 1.458654
v -0.094309 0.720866 1.916609
v -0.093976 0.396787 1.474380
v -0.102900 0.703559 1.927931
v -0.075081 0.376638 1.488678
v -0.089295 0.689052 1.938226
v -0.044254 0.380527 1.487252
v -0.067100 0.691852 1.937199
v -0.058537 0.709327 1.925763
v -0.103577 1.078920 2.135103
v -0.071736 0.717149 1.909449
v -0.113080 1.084551 2.123358
v -0.093904 0.714181 1.910590
v -0.129041 1.082414 2.124179
v -0.102873 0.703391 1.928045
v -0.135498 1.074646 2.136747
v -0.089673 0.695569 1.944359
v -0.125995 1.069014 2.148493
v -0.067505 0.698537 1.943218
v -0.110034 1.071151 2.147671
v -0.119538 1.076783 2.135925
v -0.126709 1.357047 1.981651
v -0.093453 1.148569 1.999622
v -0.151359 1.229208 2.148809
v -0.119538 1.076783 2.135925
v -0.120354 1.319042 1.926856
v -0.035028 1.192684 2.073980
v -0.204700 1.154689 2.030615
v -0.119538 1.076783 2.135925
v -0.124665 1.345974 1.962981
v -0.199739 1.159727 2.030568
v -0.043438 1.209192 2.102928
v -0.119538 1.076783 2.135925
v -0.305961 1.139461 2.388349
v -0.121563 1.122017 2.285464
v -0.266651 1.081692 2.188325
v -0.119538 1.076783 2.135925
v -0.266234 1.225756 2.378180
v -0.142006 1.078180 2.290539
v -0.214426 1.194564 2.175115
v -0.119538 1.076783 2.135925
v -0.307019 1.136430 2.388299
v -0.248941 1.033853 2.212240
v -0.140119 1.167430 2.261510
v -0.119538 1.076783 2.135925
v -0.162398 1.381145 2.224958
v -0.101100 1.180096 2.251678
v -0.172263 1.216960 2.091398
v -0.119538 1.076783 2.135925
v -0.166182 1.391407 2.171083
v -0.225440 1.188097 2.164316
v -0.050951 1.217168 2.135661
v -0.119538 1.076783 2.135925
v -0.169494 1.377082 2.037311
v -0.208010 1.204322 2.153771
v -0.071031 1.189483 2.039188
v -0.058563 0.709707 1.926678
v -0.097383 0.948215 2.278897
v -0.072134 0.723829 1.915819
v -0.107154 0.958383 2.271079
v -0.094276 0.720481 1.916045
v -0.123097 0.955972 2.271241
v -0.102847 0.703011 1.927130
v -0.129267 0.943393 2.279222
v -0.089275 0.688889 1.937989
v -0.119496 0.933226 2.287041
v -0.067133 0.692237 1.937763
v -0.103554 0.935636 2.286878
v -0.113325 0.945804 2.279060
v -0.144549 1.237358 2.150913
v -0.172112 1.089083 2.299732
v -0.079518 1.035768 2.155870
v -0.113325 0.945804 2.279060
v -0.149810 1.259466 2.330877
v -0.212913 1.065985 2.271925
v -0.042925 1.076553 2.327648
v -0.113325 0.945804 2.279060
v -0.148976 1.262679 2.252244
v -0.216055 1.061816 2.259062
v -0.039116 1.083292 2.277605
v -0.113325 0.945804 2.279060
v -0.156679 1.200805 2.467460
v -0.201423 1.007868 2.392192
v -0.059911 1.087741 2.316647
v -0.113325 0.945804 2.279060
v -0.154243 1.185111 2.487525
v -0.157417 1.094748 2.295909
v -0.101968 0.988306 2.428982
v -0.113325 0.945804 2.279060
v -0.159528 1.219400 2.438466
v -0.047961 1.051149 2.374150
v -0.215651 1.059336 2.311494
v -0.027302 0.033479 0.900000
v -0.213777 -0.134201 1.555790
v -0.040736 -0.005349 0.886651
v -0.223449 -0.162156 1.546179
v -0.013434 -0.038827 0.886651
v -0.203792 -0.186261 1.546179
v 0.027302 -0.033479 0.900000
v -0.174462 -0.182410 1.555790
v 0.040736 0.005349 0.913349
v -0.164789 -0.154454 1.565402
v 0.013434 0.038827 0.913349
v -0.184447 -0.130350 1.565402
v -0.194093 -0.188543 1.548499
v -0.127133 -0.307414 2.078861
v -0.167371 -0.172630 1.548948
v -0.107893 -0.295957 2.079184
v -0.167398 -0.142392 1.556239
v -0.107913 -0.274186 2.084434
v -0.194146 -0.128068 1.563082
v -0.127171 -0.263872 2.089361
v -0.220867 -0.143981 1.562633
v -0.146410 -0.275330 2.089038
v -0.220841 -0.174219 1.555342
v -0.146391 -0.297101 2.083788
v -0.127152 -0.285643 2.084111
v -0.130059 -0.307312 2.079257
v 0.076276 -0.409131 2.439131
v -0.111792 -0.296568 2.072018
v 0.089429 -0.401396 2.433919
v -0.108884 -0.274900 2.076872
v 0.091522 -0.385795 2.437414
v -0.124245 -0.263975 2.088965
v 0.080462 -0.377929 2.446121
v -0.142512 -0.274719 2.096204
v 0.067310 -0.385664 2.451333
v -0.145419 -0.296387 2.091350
v 0.065217 -0.401266 2.447838
v 0.078369 -0.393530 2.442626
v 0.397273 -0.412212 2.423875
v 0.206989 -0.329179 2.381569
v 0.204872 -0.472827 2.488683
v 0.078369 -0.393530 2.442626
v 0.397531 -0.414611 2.433075
v 0.205167 -0.449502 2.514749
v 0.206901 -0.354423 2.362862
v 0.078369 -0.393530 2.442626
v 0.395397 -0.424759 2.472925
v 0.209771 -0.324223 2.491024
v 0.200590 -0.487820 2.418467
v 0.078369 -0.393530 2.442626
v 0.336108 -0.473923 2.614405
v 0.154846 -0.511242 2.511236
v 0.208083 -0.340132 2.511439
v 0.078369 -0.393530 2.442626
v 0.373827 -0.462166 2.544576
v 0.171792 -0.505843 2.498034
v 0.221313 -0.336125 2.468777
v 0.078369 -0.393530 2.442626
v 0.376621 -0.460730 2.537123
v 0.229955 -0.380022 2.407249
v 0.165386 -0.460798 2.553601
v -0.213523 -0.134009 1.554969
v -0.370869 -0.253549 2.065704
v -0.223291 -0.162036 1.545665
v -0.377903 -0.273728 2.059005
v -0.203888 -0.186332 1.546486
v -0.363932 -0.291221 2.059596
v -0.174716 -0.182601 1.556612
v -0.342928 -0.288535 2.066887
v -0.164947 -0.154575 1.565916
v -0.335895 -0.268357 2.073586
v -0.184351 -0.130279 1.565094
v -0.349865 -0.250864 2.072994
v -0.369462 -0.252504 2.066383
v -0.632238 -0.439487 2.346450
v -0.373742 -0.268861 2.051698
v -0.635319 -0.451264 2.335877
v -0.361178 -0.287399 2.051610
v -0.626273 -0.464612 2.335813
v -0.344335 -0.289581 2.066207
v -0.614146 -0.466183 2.346323
v -0.340056 -0.273224 2.080893
v -0.611065 -0.454405 2.356897
v -0.352619 -0.254685 2.080981
v -0.620110 -0.441058 2.356960
v -0.623192 -0.452835 2.346387
v -0.623192 -0.452835 2.346387
v -0.831149 -0.545223 2.121402
v -0.721921 -0.565436 2.301826
v -0.690828 -0.414144 2.210960
v -0.623192 -0.452835 2.346387
v -0.900782 -0.604208 2.297096
v -0.714097 -0.522010 2.239788
v -0.754359 -0.504758 2.413553
v -0.623192 -0.452835 2.346387
v -0.898463 -0.600693 2.277365
v -0.723529 -0.563937 2.391117
v -0.743071 -0.460019 2.246439
v -0.623192 -0.452835 2.346387
v -0.521478 -0.636918 2.587566
v -0.545165 -0.454898 2.481737
v -0.619847 -0.598038 2.403980
v -0.623192 -0.452835 2.346387
v -0.558396 -0.640805 2.597123
v -0.545186 -0.579255 2.394813
v -0.649361 -0.476790 2.498549
v -0.623192 -0.452835 2.346387
v -0.554470 -0.640523 2.596287
v -0.628432 -0.598676 2.402198
v -0.562974 -0.457144 2.490496
v -0.354416 -0.292929 2.062254
v -0.256302 -0.351391 2.473844
v -0.336912 -0.279110 2.060214
v -0.243699 -0.341441 2.472376
v -0.339395 -0.257223 2.064256
v -0.245486 -0.325683 2.475286
v -0.359381 -0.249156 2.070337
v -0.259877 -0.319874 2.479664
v -0.376886 -0.262975 2.072376
v -0.272480 -0.329824 2.481132
v -0.374403 -0.284862 2.068334
v -0.270692 -0.345582 2.478222
v -0.258089 -0.335633 2.476754
v 0.058754 -0.303714 2.508242
v -0.136053 -0.357558 2.571826
v -0.126650 -0.288172 2.406872
v -0.258089 -0.335633 2.476754
v 0.033253 -0.325451 2.608724
v -0.107079 -0.370192 2.456417
v -0.176026 -0.292927 2.602667
v -0.258089 -0.335633 2.476754
v 0.019533 -0.332135 2.635857
v -0.128833 -0.416691 2.510438
v -0.165248 -0.251776 2.570353
v -0.258089 -0.335633 2.476754
v -0.446309 -0.246824 2.719831
v -0.262771 -0.263566 2.615306
v -0.403984 -0.336652 2.532663
v -0.258089 -0.335633 2.476754
v -0.378225 -0.283518 2.768733
v -0.342450 -0.396700 2.593228
v -0.269836 -0.232873 2.593864
v -0.258089 -0.335633 2.476754
v -0.427733 -0.256944 2.736425
v -0.395825 -0.350478 2.549007
v -0.256068 -0.257836 2.612238
v -0.258089 -0.335633 2.476754
v -0.015982 -0.344000 2.685833
v -0.174266 -0.426872 2.571945
v -0.148227 -0.251087 2.548826
v -0.258089 -0.335633 2.476754
v -0.016804 -0.344258 2.686771
v -0.161589 -0.249559 2.564454
v -0.161561 -0.428607 2.557068
v -0.258089 -0.335633 2.476754
v 0.020190 -0.330929 2.634673
v -0.114060 -0.275187 2.480524
v -0.179494 -0.392315 2.599319
v -0.371129 -0.253754 2.066659
v -0.470935 -0.352509 2.470066
v -0.378229 -0.273965 2.060129
v -0.476047 -0.367061 2.465364
v -0.363998 -0.291253 2.059765
v -0.465801 -0.379509 2.465102
v -0.342668 -0.288331 2.065932
v -0.450443 -0.377404 2.469542
v -0.335569 -0.268120 2.072462
v -0.445332 -0.362852 2.474244
v -0.349799 -0.250831 2.072825
v -0.455578 -0.350405 2.474506
v -0.460689 -0.364957 2.469804
v -0.688297 -0.587198 2.504497
v -0.614696 -0.390574 2.475969
v -0.488769 -0.517133 2.491394
v -0.460689 -0.364957 2.469804
v -0.683687 -0.581915 2.544645
v -0.521173 -0.451977 2.584614
v -0.578604 -0.451502 2.414867
v -0.460689 -0.364957 2.469804
v -0.688164 -0.588270 2.441760
v -0.520093 -0.495618 2.531537
v -0.583265 -0.412946 2.385636
v -0.460689 -0.364957 2.469804
v -0.209121 -0.405556 2.663363
v -0.352830 -0.466249 2.519989
v -0.367294 -0.296144 2.574467
v -0.460689 -0.364957 2.469804
v -0.190358 -0.399368 2.637545
v -0.400253 -0.384904 2.612498
v -0.304861 -0.372538 2.461302
v -0.460689 -0.364957 2.469804
v -0.244900 -0.414658 2.700812
v -0.410376 -0.465244 2.578538
v -0.338371 -0.304430 2.545876
v -0.460689 -0.364957 2.469804
v -0.687823 -0.539420 2.612537
v -0.614009 -0.394144 2.477118
v -0.489077 -0.475340 2.576677
v -0.460689 -0.364957 2.469804
v -0.681649 -0.533821 2.628113
v -0.522172 -0.395485 2.610161
v -0.575975 -0.469520 2.456094
v -0.460689 -0.364957 2.469804
v -0.608749 -0.471193 2.732849
v -0.461363 -0.362751 2.626031
v -0.578464 -0.452151 2.524013
v 0.043192 0.000022 0.899181
v 0.044407 -0.018482 1.601041
v 0.021596 0.037410 0.900577
v 0.028858 0.008437 1.602045
v -0.021596 0.037389 0.901395
v -0.002241 0.008422 1.602635
v -0.043192 -0.000022 0.900819
v -0.017790 -0.018513 1.602220
v -0.021596 -0.037410 0.899423
v -0.002241 -0.045433 1.601215
v 0.021596 -0.037389 0.898605
v 0.028858 -0.045418 1.600625
v 0.044232 -0.015187 1.601131
v 0.022394 0.183828 2.110850
v 0.025944 0.008070 1.591533
v 0.009226 0.200573 2.103939
v -0.004979 0.004759 1.592032
v -0.013038 0.198189 2.104299
v -0.017615 -0.021809 1.602129
v -0.022136 0.179060 2.111569
v 0.000673 -0.045066 1.611728
v -0.008969 0.162315 2.118480
v 0.031596 -0.041755 1.611228
v 0.013296 0.164699 2.118120
v 0.022496 0.180725 2.112070
v 0.018750 0.538516 2.345356
v 0.012277 0.191671 2.095419
v 0.011393 0.546398 2.333367
v -0.010089 0.192391 2.094558
v -0.004711 0.546916 2.332747
v -0.022238 0.182164 2.110349
v -0.013458 0.539552 2.344117
v -0.012019 0.171217 2.127001
v -0.006101 0.531671 2.356106
v 0.010347 0.170498 2.127862
v 0.010003 0.531153 2.356726
v 0.002646 0.539034 2.344736
v 0.001540 0.853860 2.287433
v 0.003442 0.681012 2.409957
v 0.000965 0.648917 2.233673
v 0.002646 0.539034 2.344736
v -0.000016 0.799664 2.159089
v -0.072843 0.613838 2.230203
v 0.076005 0.672734 2.310752
v 0.002646 0.539034 2.344736
v 0.000258 0.814695 2.182240
v 0.023458 0.693576 2.354530
v -0.020076 0.605022 2.204945
v 0.002646 0.539034 2.344736
v -0.208661 0.522374 2.584469
v -0.141253 0.493939 2.385623
v -0.022501 0.570801 2.495636
v 0.002646 0.539034 2.344736
v -0.140839 0.667773 2.600155
v -0.041797 0.514495 2.492502
v -0.067698 0.666564 2.401305
v 0.002646 0.539034 2.344736
v -0.173157 0.612374 2.601864
v -0.088970 0.481925 2.457684
v -0.046381 0.654815 2.437490
v 0.002646 0.539034 2.344736
v 0.016987 0.839023 2.455196
v -0.076621 0.652908 2.416581
v 0.093386 0.665151 2.361260
v 0.002646 0.539034 2.344736
v 0.022260 0.841557 2.242291
v -0.048955 0.642030 2.239184
v 0.069938 0.678057 2.368333
v 0.002646 0.539034 2.344736
v 0.020670 0.858508 2.348179
v -0.054739 0.671135 2.284170
v 0.074450 0.662512 2.408058
v 0.022398 0.183697 2.110476
v 0.015091 0.324819 2.513567
v 0.009213 0.200761 2.104437
v 0.005598 0.337105 2.509219
v -0.013057 0.198509 2.105171
v -0.010436 0.335483 2.509747
v -0.022140 0.179192 2.111943
v -0.016976 0.321575 2.514623
v -0.008955 0.162127 2.117982
v -0.007483 0.309288 2.518971
v 0.013315 0.164380 2.117249
v 0.008551 0.310910 2.518443
v -0.000942 0.323197 2.514095
v -0.000942 0.323197 2.514095
v -0.010545 0.614783 2.645569
v 0.037559 0.408537 2.639183
v -0.047125 0.471126 2.494187
v -0.000942 0.323197 2.514095
v -0.011574 0.630244 2.603588
v -0.058010 0.424083 2.618868
v 0.047620 0.467948 2.480916
v -0.000942 0.323197 2.514095
v -0.013240 0.641893 2.487989
v -0.056372 0.454779 2.577544
v 0.044649 0.446571 2.429761
v -0.000942 0.323197 2.514095
v -0.147739 0.196617 2.768709
v -0.071805 0.354649 2.649747
v -0.047516 0.190481 2.582135
v -0.000942 0.323197 2.514095
v -0.123217 0.243639 2.798910
v 0.028179 0.311560 2.667159
v -0.127883 0.271188 2.588883
v -0.000942 0.323197 2.514095
v -0.147591 0.196919 2.768944
v 0.018011 0.236931 2.642979
v -0.137215 0.308440 2.589090
v -0.009133 0.003017 1.602623
v -0.182180 -0.211905 2.075657
v -0.014346 -0.024258 1.588610
v -0.185934 -0.231543 2.065567
v 0.008095 -0.045773 1.587617
v -0.169776 -0.247034 2.064852
v 0.035750 -0.040012 1.600637
v -0.149865 -0.242886 2.074227
v 0.040963 -0.012738 1.614650
v -0.146112 -0.223248 2.084316
v 0.018522 0.008777 1.615643
v -0.162269 -0.207758 2.085031
v -0.182778 -0.212538 2.075151
v -0.429087 -0.502498 2.269333
v -0.180373 -0.226460 2.057774
v -0.427355 -0.512521 2.256822
v -0.163618 -0.241317 2.057566
v -0.415291 -0.523218 2.256671
v -0.149267 -0.242253 2.074733
v -0.404959 -0.523892 2.269032
v -0.151672 -0.228331 2.092109
v -0.406691 -0.513868 2.281543
v -0.168428 -0.213474 2.092318
v -0.418755 -0.503171 2.281693
v -0.417023 -0.513195 2.269182
v -0.616756 -0.720218 2.129011
v -0.563482 -0.567520 2.265895
v -0.430351 -0.624488 2.160333
v -0.417023 -0.513195 2.269182
v -0.555886 -0.646166 2.013378
v -0.394416 -0.603652 2.143809
v -0.550721 -0.529114 2.189913
v -0.417023 -0.513195 2.269182
v -0.589433 -0.685947 2.062225
v -0.561287 -0.546650 2.219375
v -0.410687 -0.617942 2.153424
v -0.417023 -0.513195 2.269182
v -0.367148 -0.731401 2.497871
v -0.329840 -0.635312 2.312757
v -0.464305 -0.565643 2.408559
v -0.417023 -0.513195 2.269182
v -0.384953 -0.736107 2.496519
v -0.315973 -0.605340 2.344749
v -0.492417 -0.599379 2.375485
v -0.417023 -0.513195 2.269182
v -0.290483 -0.701793 2.494611
v -0.324273 -0.517963 2.394828
v -0.408541 -0.659306 2.323879
v -0.417023 -0.513195 2.269182
v -0.627599 -0.753755 2.282912
v -0.516880 -0.590817 2.360918
v -0.485627 -0.628020 2.188431
v -0.417023 -0.513195 2.269182
v -0.625946 -0.752339 2.308697
v -0.517263 -0.580516 2.368338
v -0.483921 -0.637189 2.201638
v -0.417023 -0.513195 2.269182
v -0.625710 -0.750419 2.218443
v -0.440898 -0.649231 2.196133
v -0.560098 -0.566937 2.301640
v -0.163652 -0.248087 2.066708
v -0.131019 -0.396428 2.465934
v -0.145611 -0.235277 2.070169
v -0.118030 -0.387205 2.468425
v -0.147982 -0.214586 2.078403
v -0.119737 -0.372308 2.474354
v -0.168394 -0.206705 2.083175
v -0.134433 -0.366633 2.477790
v -0.186434 -0.219514 2.079715
v -0.147422 -0.375856 2.475298
v -0.184063 -0.240205 2.071481
v -0.145715 -0.390753 2.469370
v -0.132726 -0.381530 2.471862
v -0.132726 -0.381530 2.471862
v 0.157669 -0.359884 2.604535
v -0.047599 -0.412128 2.599256
v 0.014463 -0.333616 2.450606
v -0.132726 -0.381530 2.471862
v 0.167412 -0.346041 2.577016
v -0.002253 -0.456326 2.514223
v -0.023089 -0.278343 2.513625
v -0.132726 -0.381530 2.471862
v 0.158625 -0.358683 2.602217
v 0.000745 -0.457331 2.501051
v -0.033116 -0.287452 2.546957
v -0.132726 -0.381530 2.471862
v -0.315832 -0.344935 2.731733
v -0.201901 -0.455085 2.591096
v -0.210036 -0.278699 2.560525
v -0.132726 -0.381530 2.471862
v -0.362746 -0.295250 2.676915
v -0.286368 -0.359780 2.490114
v -0.163099 -0.334256 2.617652
v -0.132726 -0.381530 2.471862
v -0.329281 -0.331828 2.719442
v -0.235550 -0.282816 2.535854
v -0.187147 -0.440483 2.605933
v -0.181767 -0.211472 2.074681
v -0.339227 -0.370009 2.438718
v -0.185566 -0.231139 2.064666
v -0.341962 -0.384169 2.431507
v -0.169821 -0.247063 2.064927
v -0.330626 -0.395635 2.431695
v -0.150278 -0.243320 2.075203
v -0.316555 -0.392940 2.439094
v -0.146480 -0.223653 2.085218
v -0.313820 -0.378779 2.446305
v -0.162224 -0.207729 2.084957
v -0.325156 -0.367314 2.446117
v -0.327891 -0.381474 2.438906
v -0.553667 -0.601034 2.495639
v -0.467161 -0.407830 2.504644
v -0.369242 -0.530766 2.418555
v -0.327891 -0.381474 2.438906
v -0.551139 -0.599872 2.369171
v -0.436123 -0.477313 2.498178
v -0.398258 -0.460355 2.323847
v -0.327891 -0.381474 2.438906
v -0.555441 -0.602940 2.478580
v -0.356611 -0.529737 2.478974
v -0.481211 -0.410384 2.430578
v -0.327891 -0.381474 2.438906
v -0.233147 -0.444729 2.737942
v -0.349759 -0.473355 2.563373
v -0.230228 -0.340198 2.553668
v -0.327891 -0.381474 2.438906
v -0.203697 -0.433897 2.729126
v -0.205779 -0.354685 2.532624
v -0.350649 -0.450202 2.577365
v -0.327891 -0.381474 2.438906
v -0.154327 -0.413198 2.705869
v -0.186853 -0.416126 2.496523
v -0.330078 -0.372201 2.594859
v -0.327891 -0.381474 2.438906
v -0.513354 -0.568879 2.620243
v -0.442902 -0.383914 2.544635
v -0.361251 -0.528959 2.478246
v -0.327891 -0.381474 2.438906
v -0.494032 -0.549512 2.654686
v -0.467445 -0.442475 2.473776
v -0.321250 -0.454904 2.576660
v -0.327891 -0.381474 2.438906
v -0.503635 -0.559141 2.638777
v -0.437322 -0.492548 2.448882
v -0.359055 -0.412534 2.588827
v 0.044409 -0.018486 1.601155
v 0.044068 -0.036959 2.148472
v 0.028862 0.008429 1.602301
v 0.032875 -0.017580 2.149298
v -0.002238 0.008418 1.602776
v 0.010483 -0.017589 2.149640
v -0.017792 -0.018510 1.602105
v -0.000716 -0.036976 2.149157
v -0.002245 -0.045425 1.600959
v 0.010477 -0.056356 2.148331
v 0.028855 -0.045414 1.600484
v 0.032869 -0.056347 2.147989
v 0.044034 -0.038188 2.148431
v 0.053295 0.122371 2.544141
v 0.033709 -0.019631 2.141321
v 0.045861 0.135732 2.539021
v 0.011351 -0.018411 2.141704
v 0.029763 0.136611 2.539297
v -0.000682 -0.035748 2.149198
v 0.021099 0.124128 2.544693
v 0.009643 -0.054305 2.156308
v 0.028533 0.110767 2.549812
v 0.032001 -0.055525 2.155925
v 0.044631 0.109888 2.549536
v 0.037197 0.123249 2.544417
v -0.186229 -0.046574 2.698174
v -0.034628 -0.015208 2.553517
v -0.069719 0.125849 2.658322
v 0.037197 0.123249 2.544417
v -0.181964 -0.036318 2.714437
v 0.010609 0.043221 2.675949
v -0.111544 0.075623 2.548900
v 0.037197 0.123249 2.544417
v -0.152177 0.017678 2.779772
v -0.099635 0.143001 2.617213
v 0.022529 0.019041 2.659905
v 0.037197 0.123249 2.544417
v 0.054608 0.361787 2.757012
v -0.043745 0.233329 2.620200
v 0.132067 0.204000 2.638710
v 0.037197 0.123249 2.544417
v 0.055557 0.393782 2.714343
v 0.009140 0.276952 2.543790
v 0.079942 0.185973 2.680985
v 0.037197 0.123249 2.544417
v 0.056001 0.418855 2.665512
v -0.028607 0.226034 2.641974
v 0.118043 0.256949 2.543736
v 0.004597 -0.022501 2.149564
v -0.096287 -0.171383 2.537001
v 0.001545 -0.042999 2.141074
v -0.098485 -0.186141 2.530888
v 0.018624 -0.057465 2.140324
v -0.086188 -0.196557 2.530349
v 0.038755 -0.051434 2.148065
v -0.071694 -0.192215 2.535922
v 0.041807 -0.030937 2.156555
v -0.069496 -0.177457 2.542035
v 0.024728 -0.016471 2.157304
v -0.081793 -0.167041 2.542574
v -0.083991 -0.181799 2.536461
v -0.241549 -0.430272 2.662306
v -0.222886 -0.233536 2.585893
v -0.071142 -0.328840 2.587706
v -0.083991 -0.181799 2.536461
v -0.242196 -0.431577 2.658863
v -0.211967 -0.226715 2.614029
v -0.082578 -0.336705 2.556815
v -0.083991 -0.181799 2.536461
v -0.251084 -0.454693 2.539414
v -0.217828 -0.249471 2.580281
v -0.083828 -0.332442 2.495003
v -0.083991 -0.181799 2.536461
v 0.081165 -0.245138 2.803129
v 0.048718 -0.154631 2.614323
v -0.084575 -0.259639 2.671934
v -0.083991 -0.181799 2.536461
v 0.191505 -0.193669 2.698823
v 0.041459 -0.268877 2.569509
v 0.010957 -0.104218 2.633303
v -0.083991 -0.181799 2.536461
v 0.085586 -0.243654 2.800692
v 0.036661 -0.136303 2.624697
v -0.068981 -0.276779 2.659610
v -0.083991 -0.181799 2.536461
v -0.199467 -0.354891 2.779576
v -0.209205 -0.257030 2.591904
v -0.051157 -0.245042 2.675510
v -0.083991 -0.181799 2.536461
v -0.249409 -0.405660 2.694332
v -0.226145 -0.240870 2.563201
v -0.074172 -0.301816 2.636019
v -0.083991 -0.181799 2.536461
v -0.272450 -0.425156 2.623985
v -0.101597 -0.300482 2.636545
v -0.217151 -0.257802 2.506397
v 0.044048 -0.036946 2.147803
v 0.057081 -0.045284 2.574665
v 0.032861 -0.017566 2.148687
v 0.049026 -0.031330 2.575302
v 0.010489 -0.017588 2.149699
v 0.032918 -0.031346 2.576031
v -0.000696 -0.036989 2.149826
v 0.024866 -0.045315 2.576122
v 0.010492 -0.056369 2.148941
v 0.032921 -0.059268 2.575485
v 0.032864 -0.056348 2.147930
v 0.049028 -0.059253 2.574757
v 0.040973 -0.045299 2.575394
v -0.074414 -0.187548 2.837789
v -0.074807 -0.132938 2.633070
v 0.064444 -0.071460 2.727633
v 0.040973 -0.045299 2.575394
v -0.159736 -0.269063 2.685147
v -0.046613 -0.090285 2.696708
v -0.032008 -0.179325 2.541882
v 0.040973 -0.045299 2.575394
v -0.124333 -0.236801 2.771355
v 0.038274 -0.112589 2.716379
v -0.088573 -0.131211 2.591177
v 0.040973 -0.045299 2.575394
v 0.050808 0.185734 2.796588
v 0.099667 0.094929 2.611495
v -0.009853 -0.000701 2.716248
v 0.040973 -0.045299 2.575394
v 0.053515 0.110642 2.854545
v 0.105020 0.074760 2.652179
v -0.013040 -0.040606 2.721929
v 0.040973 -0.045299 2.575394
v 0.054935 0.037233 2.884252
v 0.115441 0.042218 2.681259
v -0.022325 -0.066791 2.716616
usemtl Bark
f 1 3 4
f 1 4 2
f 3 5 6
f 3 6 4
f 5 7 8
f 5 8 6
f 7 9 10
f 7 10 8
f 9 11 12
f 9 12 10
f 11 1 2
f 11 2 12
f 13 15 16
f 13 16 14
f 15 17 18
f 15 18 16
f 17 19 20
f 17 20 18
f 19 21 22
f 19 22 20
f 21 23 24
f 21 24 22
f 23 13 14
f 23 14 24
f 25 27 28
f 25 28 26
f 27 29 30
f 27 30 28
f 29 31 32
f 29 32 30
f 31 33 34
f 31 34 32
f 33 35 36
f 33 36 34
f 35 25 26
f 35 26 36
f 37 39 40
f 37 40 38
f 39 41 42
f 39 42 40
f 41 43 44
f 41 44 42
f 43 45 46
f 43 46 44
f 45 47 48
f 45 48 46
f 47 37 38
f 47 38 48
f 85 87 88
f 85 88 86
f 87 89 90
f 87 90 88
f 89 91 92
f 89 92 90
f 91 93 94
f 91 94 92
f 93 95 96
f 93 96 94
f 95 85 86
f 95 86 96
f 133 135 136
f 133 136 134
f 135 137 138
f 135 138 136
f 137 139 140
f 137 140 138
f 139 141 142
f 139 142 140
f 141 143 144
f 141 144 142
f 143 133 134
f 143 134 144
f 181 183 184
f 181 184 182
f 183 185 186
f 183 186 184
f 185 187 188
f 185 188 186
f 187 189 190
f 187 190 188
f 189 191 192
f 189 192 190
f 191 181 182
f 191 182 192
f 193 195 196
f 193 196 194
f 195 197 198
f 195 198 196
f 197 199 200
f 197 200 198
f 199 201 202
f 199 202 200
f 201 203 204
f 201 204 202
f 203 193 194
f 203 194 204
f 241 243 244
f 241 244 242
f 243 245 246
f 243 246 244
f 245 247 248
f 245 248 246
f 247 249 250
f 247 250 248
f 249 251 252
f 249 252 250
f 251 241 242
f 251 242 252
f 289 291 292
f 289 292 290
f 291 293 294
f 291 294 292
f 293 295 296
f 293 296 294
f 295 297 298
f 295 298 296
f 297 299 300
f 297 300 298
f 299 289 290
f 299 290 300
f 301 303 304
f 301 304 302
f 303 305 306
f 303 306 304
f 305 307 308
f 305 308 306
f 307 309 310
f 307 310 308
f 309 311 312
f 309 312 310
f 311 301 302
f 311 302 312
f 349 351 352
f 349 352 350
f 351 353 354
f 351 354 352
f 353 355 356
f 353 356 354
f 355 357 358
f 355 358 356
f 357 359 360
f 357 360 358
f 359 349 350
f 359 350 360
f 385 387 388
f 385 388 386
f 387 389 390
f 387 390 388
f 389 391 392
f 389 392 390
f 391 393 394
f 391 394 392
f 393 395 396
f 393 396 394
f 395 385 386
f 395 386 396
f 397 399 400
f 397 400 398
f 399 401 402
f 399 402 400
f 401 403 404
f 401 404 402
f 403 405 406
f 403 406 404
f 405 407 408
f 405 408 406
f 407 397 398
f 407 398 408
f 398 400 409
f 400 402 409
f 402 404 409
f 404 406 409
f 406 408 409
f 408 398 409
f 410 412 413
f 410 413 411
f 412 414 415
f 412 415 413
f 414 416 417
f 414 417 415
f 416 418 419
f 416 419 417
f 418 420 421
f 418 421 419
f 420 410 411
f 420 411 421
f 446 448 449
f 446 449 447
f 448 450 451
f 448 451 449
f 450 452 453
f 450 453 451
f 452 454 455
f 452 455 453
f 454 456 457
f 454 457 455
f 456 446 447
f 456 447 457
f 458 460 461
f 458 461 459
f 460 462 463
f 460 463 461
f 462 464 465
f 462 465 463
f 464 466 467
f 464 467 465
f 466 468 469
f 466 469 467
f 468 458 459
f 468 459 469
f 459 461 470
f 461 463 470
f 463 465 470
f 465 467 470
f 467 469 470
f 469 459 470
f 495 497 498
f 495 498 496
f 497 499 500
f 497 500 498
f 499 501 502
f 499 502 500
f 501 503 504
f 501 504 502
f 503 505 506
f 503 506 504
f 505 495 496
f 505 496 506
f 543 545 546
f 543 546 544
f 545 547 548
f 545 548 546
f 547 549 550
f 547 550 548
f 549 551 552
f 549 552 550
f 551 553 554
f 551 554 552
f 553 543 544
f 553 544 554
f 591 593 594
f 591 594 592
f 593 595 596
f 593 596 594
f 595 597 598
f 595 598 596
f 597 599 600
f 597 600 598
f 599 601 602
f 599 602 600
f 601 591 592
f 601 592 602
f 603 605 606
f 603 606 604
f 605 607 608
f 605 608 606
f 607 609 610
f 607 610 608
f 609 611 612
f 609 612 610
f 611 613 614
f 611 614 612
f 613 603 604
f 613 604 614
f 615 617 618
f 615 618 616
f 617 619 620
f 617 620 618
f 619 621 622
f 619 622 620
f 621 623 624
f 621 624 622
f 623 625 626
f 623 626 624
f 625 615 616
f 625 616 626
f 663 665 666
f 663 666 664
f 665 667 668
f 665 668 666
f 667 669 670
f 667 670 668
f 669 671 672
f 669 672 670
f 671 673 674
f 671 674 672
f 673 663 664
f 673 664 674
f 664 666 675
f 666 668 675
f 668 670 675
f 670 672 675
f 672 674 675
f 674 664 675
f 700 702 703
f 700 703 701
f 702 704 705
f 702 705 703
f 704 706 707
f 704 707 705
f 706 708 709
f 706 709 707
f 708 710 711
f 708 711 709
f 710 700 701
f 710 701 711
f 712 714 715
f 712 715 713
f 714 716 717
f 714 717 715
f 716 718 719
f 716 719 717
f 718 720 721
f 718 721 719
f 720 722 723
f 720 723 721
f 722 712 713
f 722 713 723
f 760 762 763
f 760 763 761
f 762 764 765
f 762 765 763
f 764 766 767
f 764 767 765
f 766 768 769
f 766 769 767
f 768 770 771
f 768 771 769
f 770 760 761
f 770 761 771
f 761 763 772
f 763 765 772
f 765 767 772
f 767 769 772
f 769 771 772
f 771 761 772
f 797 799 800
f 797 800 798
f 799 801 802
f 799 802 800
f 801 803 804
f 801 804 802
f 803 805 806
f 803 806 804
f 805 807 808
f 805 808 806
f 807 797 798
f 807 798 808
f 845 847 848
f 845 848 846
f 847 849 850
f 847 850 848
f 849 851 852
f 849 852 850
f 851 853 854
f 851 854 852
f 853 855 856
f 853 856 854
f 855 845 846
f 855 846 856
f 857 859 860
f 857 860 858
f 859 861 862
f 859 862 860
f 861 863 864
f 861 864 862
f 863 865 866
f 863 866 864
f 865 867 868
f 865 868 866
f 867 857 858
f 867 858 868
f 893 895 896
f 893 896 894
f 895 897 898
f 895 898 896
f 897 899 900
f 897 900 898
f 899 901 902
f 899 902 900
f 901 903 904
f 901 904 902
f 903 893 894
f 903 894 904
f 941 943 944
f 941 944 942
f 943 945 946
f 943 946 944
f 945 947 948
f 945 948 946
f 947 949 950
f 947 950 948
f 949 951 952
f 949 952 950
f 951 941 942
f 951 942 952
usemtl Leaf
f 49 51 50
f 49 50 51
f 50 52 49
f 50 49 52
f 53 55 54
f 53 54 55
f 54 56 53
f 54 53 56
f 57 59 58
f 57 58 59
f 58 60 57
f 58 57 60
f 61 63 62
f 61 62 63
f 62 64 61
f 62 61 64
f 65 67 66
f 65 66 67
f 66 68 65
f 66 65 68
f 69 71 70
f 69 70 71
f 70 72 69
f 70 69 72
f 73 75 74
f 73 74 75
f 74 76 73
f 74 73 76
f 77 79 78
f 77 78 79
f 78 80 77
f 78 77 80
f 81 83 82
f 81 82 83
f 82 84 81
f 82 81 84
f 97 99 98
f 97 98 99
f 98 100 97
f 98 97 100
f 101 103 102
f 101 102 103
f 102 104 101
f 102 101 104
f 105 107 106
f 105 106 107
f 106 108 105
f 106 105 108
f 109 111 110
f 109 110 111
f 110 112 109
f 110 109 112
f 113 115 114
f 113 114 115
f 114 116 113
f 114 113 116
f 117 119 118
f 117 118 119
f 118 120 117
f 118 117 120
f 121 123 122
f 121 122 123
f 122 124 121
f 122 121 124
f 125 127 126
f 125 126 127
f 126 128 125
f 126 125 128
f 129 131 130
f 129 130 131
f 130 132 129
f 130 129 132
f 145 147 146
f 145 146 147
f 146 148 145
f 146 145 148
f 149 151 150
f 149 150 151
f 150 152 149
f 150 149 152
f 153 155 154
f 153 154 155
f 154 156 153
f 154 153 156
f 157 159 158
f 157 158 159
f 158 160 157
f 158 157 160
f 161 163 162
f 161 162 163
f 162 164 161
f 162 161 164
f 165 167 166
f 165 166 167
f 166 168 165
f 166 165 168
f 169 171 170
f 169 170 171
f 170 172 169
f 170 169 172
f 173 175 174
f 173 174 175
f 174 176 173
f 174 173 176
f 177 179 178
f 177 178 179
f 178 180 177
f 178 177 180
f 205 207 206
f 205 206 207
f 206 208 205
f 206 205 208
f 209 211 210
f 209 210 211
f 210 212 209
f 210 209 212
f 213 215 214
f 213 214 215
f 214 216 213
f 214 213 216
f 217 219 218
f 217 218 219
f 218 220 217
f 218 217 220
f 221 223 222
f 221 222 223
f 222 224 221
f 222 221 224
f 225 227 226
f 225 226 227
f 226 228 225
f 226 225 228
f 229 231 230
f 229 230 231
f 230 232 229
f 230 229 232
f 233 235 234
f 233 234 235
f 234 236 233
f 234 233 236
f 237 239 238
f 237 238 239
f 238 240 237
f 238 237 240
f 253 255 254
f 253 254 255
f 254 256 253
f 254 253 256
f 257 259 258
f 257 258 259
f 258 260 257
f 258 257 260
f 261 263 262
f 261 262 263
f 262 264 261
f 262 261 264
f 265 267 266
f 265 266 267
f 266 268 265
f 266 265 268
f 269 271 270
f 269 270 271
f 270 272 269
f 270 269 272
f 273 275 274
f 273 274 275
f 274 276 273
f 274 273 276
f 277 279 278
f 277 278 279
f 278 280 277
f 278 277 280
f 281 283 282
f 281 282 283
f 282 284 281
f 282 281 284
f 285 287 286
f 285 286 287
f 286 288 285
f 286 285 288
f 313 315 314
f 313 314 315
f 314 316 313
f 314 313 316
f 317 319 318
f 317 318 319
f 318 320 317
f 318 317 320
f 321 323 322
f 321 322 323
f 322 324 321
f 322 321 324
f 325 327 326
f 325 326 327
f 326 328 325
f 326 325 328
f 329 331 330
f 329 330 331
f 330 332 329
f 330 329 332
f 333 335 334
f 333 334 335
f 334 336 333
f 334 333 336
f 337 339 338
f 337 338 339
f 338 340 337
f 338 337 340
f 341 343 342
f 341 342 343
f 342 344 341
f 342 341 344
f 345 347 346
f 345 346 347
f 346 348 345
f 346 345 348
f 361 363 362
f 361 362 363
f 362 364 361
f 362 361 364
f 365 367 366
f 365 366 367
f 366 368 365
f 366 365 368
f 369 371 370
f 369 370 371
f 370 372 369
f 370 369 372
f 373 375 374
f 373 374 375
f 374 376 373
f 374 373 376
f 377 379 378
f 377 378 379
f 378 380 377
f 378 377 380
f 381 383 382
f 381 382 383
f 382 384 381
f 382 381 384
f 422 424 423
f 422 423 424
f 423 425 422
f 423 422 425
f 426 428 427
f 426 427 428
f 427 429 426
f 427 426 429
f 430 432 431
f 430 431 432
f 431 433 430
f 431 430 433
f 434 436 435
f 434 435 436
f 435 437 434
f 435 434 437
f 438 440 439
f 438 439 440
f 439 441 438
f 439 438 441
f 442 444 443
f 442 443 444
f 443 445 442
f 443 442 445
f 471 473 472
f 471 472 473
f 472 474 471
f 472 471 474
f 475 477 476
f 475 476 477
f 476 478 475
f 476 475 478
f 479 481 480
f 479 480 481
f 480 482 479
f 480 479 482
f 483 485 484
f 483 484 485
f 484 486 483
f 484 483 486
f 487 489 488
f 487 488 489
f 488 490 487
f 488 487 490
f 491 493 492
f 491 492 493
f 492 494 491
f 492 491 494
f 507 509 508
f 507 508 509
f 508 510 507
f 508 507 510
f 511 513 512
f 511 512 513
f 512 514 511
f 512 511 514
f 515 517 516
f 515 516 517
f 516 518 515
f 516 515 518
f 519 521 520
f 519 520 521
f 520 522 519
f 520 519 522
f 523 525 524
f 523 524 525
f 524 526 523
f 524 523 526
f 527 529 528
f 527 528 529
f 528 530 527
f 528 527 530
f 531 533 532
f 531 532 533
f 532 534 531
f 532 531 534
f 535 537 536
f 535 536 537
f 536 538 535
f 536 535 538
f 539 541 540
f 539 540 541
f 540 542 539
f 540 539 542
f 555 557 556
f 555 556 557
f 556 558 555
f 556 555 558
f 559 561 560
f 559 560 561
f 560 562 559
f 560 559 562
f 563 565 564
f 563 564 565
f 564 566 563
f 564 563 566
f 567 569 568
f 567 568 569
f 568 570 567
f 568 567 570
f 571 573 572
f 571 572 573
f 572 574 571
f 572 571 574
f 575 577 576
f 575 576 577
f 576 578 575
f 576 575 578
f 579 581 580
f 579 580 581
f 580 582 579
f 580 579 582
f 583 585 584
f 583 584 585
f 584 586 583
f 584 583 586
f 587 589 588
f 587 588 589
f 588 590 587
f 588 587 590
f 627 629 628
f 627 628 629
f 628 630 627
f 628 627 630
f 631 633 632
f 631 632 633
f 632 634 631
f 632 631 634
f 635 637 636
f 635 636 637
f 636 638 635
f 636 635 638
f 639 641 640
f 639 640 641
f 640 642 639
f 640 639 642
f 643 645 644
f 643 644 645
f 644 646 643
f 644 643 646
f 647 649 648
f 647 648 649
f 648 650 647
f 648 647 650
f 651 653 652
f 651 652 653
f 652 654 651
f 652 651 654
f 655 657 656
f 655 656 657
f 656 658 655
f 656 655 658
f 659 661 660
f 659 660 661
f 660 662 659
f 660 659 662
f 676 678 677
f 676 677 678
f 677 679 676
f 677 676 679
f 680 682 681
f 680 681 682
f 681 683 680
f 681 680 683
f 684 686 685
f 684 685 686
f 685 687 684
f 685 684 687
f 688 690 689
f 688 689 690
f 689 691 688
f 689 688 691
f 692 694 693
f 692 693 694
f 693 695 692
f 693 692 695
f 696 698 697
f 696 697 698
f 697 699 696
f 697 696 699
f 724 726 725
f 724 725 726
f 725 727 724
f 725 724 727
f 728 730 729
f 728 729 730
f 729 731 728
f 729 728 731
f 732 734 733
f 732 733 734
f 733 735 732
f 733 732 735
f 736 738 737
f 736 737 738
f 737 739 736
f 737 736 739
f 740 742 741
f 740 741 742
f 741 743 740
f 741 740 743
f 744 746 745
f 744 745 746
f 745 747 744
f 745 744 747
f 748 750 749
f 748 749 750
f 749 751 748
f 749 748 751
f 752 754 753
f 752 753 754
f 753 755 752
f 753 752 755
f 756 758 757
f 756 757 758
f 757 759 756
f 757 756 759
f 773 775 774
f 773 774 775
f 774 776 773
f 774 773 776
f 777 779 778
f 777 778 779
f 778 780 777
f 778 777 780
f 781 783 782
f 781 782 783
f 782 784 781
f 782 781 784
f 785 787 786
f 785 786 787
f 786 788 785
f 786 785 788
f 789 791 790
f 789 790 791
f 790 792 789
f 790 789 792
f 793 795 794
f 793 794 795
f 794 796 793
f 794 793 796
f 809 811 810
f 809 810 811
f 810 812 809
f 810 809 812
f 813 815 814
f 813 814 815
f 814 816 813
f 814 813 816
f 817 819 818
f 817 818 819
f 818 820 817
f 818 817 820
f 821 823 822
f 821 822 823
f 822 824 821
f 822 821 824
f 825 827 826
f 825 826 827
f 826 828 825
f 826 825 828
f 829 831 830
f 829 830 831
f 830 832 829
f 830 829 832
f 833 835 834
f 833 834 835
f 834 836 833
f 834 833 836
f 837 839 838
f 837 838 839
f 838 840 837
f 838 837 840
f 841 843 842
f 841 842 843
f 842 844 841
f 842 841 844
f 869 871 870
f 869 870 871
f 870 872 869
f 870 869 872
f 873 875 874
f 873 874 875
f 874 876 873
f 874 873 876
f 877 879 878
f 877 878 879
f 878 880 877
f 878 877 880
f 881 883 882
f 881 882 883
f 882 884 881
f 882 881 884
f 885 887 886
f 885 886 887
f 886 888 885
f 886 885 888
f 889 891 890
f 889 890 891
f 890 892 889
f 890 889 892
f 905 907 906
f 905 906 907
f 906 908 905
f 906 905 908
f 909 911 910
f 909 910 911
f 910 912 909
f 910 909 912
f 913 915 914
f 913 914 915
f 914 916 913
f 914 913 916
f 917 919 918
f 917 918 919
f 918 920 917
f 918 917 920
f 921 923 922
f 921 922 923
f 922 924 921
f 922 921 924
f 925 927 926
f 925 926 927
f 926 928 925
f 926 925 928
f 929 931 930
f 929 930 931
f 930 932 929
f 930 929 932
f 933 935 934
f 933 934 935
f 934 936 933
f 934 933 936
f 937 939 938
f 937 938 939
f 938 940 937
f 938 937 940
f 953 955 954
f 953 954 955
f 954 956 953
f 954 953 956
f 957 959 958
f 957 958 959
f 958 960 957
f 958 957 960
f 961 963 962
f 961 962 963
f 962 964 961
f 962 961 964
f 965 967 966
f 965 966 967
f 966 968 965
f 966 965 968
f 969 971 970
f 969 970 971
f 970 972 969
f 970 969 972
f 973 975 974
f 973 974 975
f 974 976 973
f 974 973 976
